<svg height="512pt" viewBox="0 0 512 512" width="512pt" xmlns="http://www.w3.org/2000/svg"><path d="m255.832031 456.792969c13.304688 0 24.046875 10.742187 24.046875 24.046875 0 13.304687-10.742187 24.042968-24.046875 24.042968-13.304687 0-24.042969-10.738281-24.042969-24.042968 0-13.304688 10.738282-24.046875 24.042969-24.046875zm0 0" fill="#fd6149"/><path d="m480.261719 232.367188c13.304687 0 24.042969 10.738281 24.042969 24.042968 0 13.308594-10.738282 24.046875-24.042969 24.046875-13.308594 0-24.046875-10.738281-24.046875-24.046875 0-13.304687 10.738281-24.042968 24.046875-24.042968zm0 0" fill="#fd6149"/><path d="m255.832031 7.9375c13.304688 0 24.046875 10.742188 24.046875 24.046875s-10.742187 24.046875-24.046875 24.046875c-13.304687 0-24.042969-10.742188-24.042969-24.046875s10.738282-24.046875 24.042969-24.046875zm0 0" fill="#fd6149"/><path d="m31.40625 232.367188c13.304688 0 24.046875 10.738281 24.046875 24.042968 0 13.308594-10.742187 24.046875-24.046875 24.046875s-24.046875-10.738281-24.046875-24.046875c0-13.304687 10.738281-24.042968 24.046875-24.042968zm0 0" fill="#fd6149"/><path d="m255.832031 120.152344c75.265625 0 136.261719 60.996094 136.261719 136.257812 0 75.265625-60.996094 136.261719-136.261719 136.261719-75.261719 0-136.257812-60.996094-136.257812-136.261719 0-75.261718 60.996093-136.257812 136.257812-136.257812zm0 0" fill="#69f0f7"/><path d="m191.710938 256.410156c0-62.753906 42.464843-115.449218 100.191406-131.277344-11.507813-3.15625-23.5625-4.980468-36.070313-4.980468-75.261719 0-136.257812 60.996094-136.257812 136.257812 0 75.265625 60.996093 136.261719 136.257812 136.261719 12.507813 0 24.566407-1.824219 36.070313-4.980469-57.726563-15.828125-100.191406-68.523437-100.191406-131.28125zm0 0" fill="#1dbcc5"/><path d="m207.910156 224.425781h16.03125v15.054688h-16.03125zm0 0" fill="#fff"/><path d="m223.941406 208.398438h16.027344v15.050781h-16.027344zm0 0" fill="#fff"/><path d="m288.0625 272.519531h16.03125v15.054688h-16.03125zm0 0" fill="#fff"/><path d="m272.03125 288.550781h16.03125v15.054688h-16.03125zm0 0" fill="#fff"/><g fill="#231f20"><path d="m112.214844 256c0 79.285156 64.5 143.785156 143.785156 143.785156s143.785156-64.5 143.785156-143.785156c0-33.890625-12.015625-66.800781-33.832031-92.664062l-11.503906 9.707031c17.910156 21.230469 28.433593 47.769531 30.054687 75.429687h-49.089844c-.390624-7.730468-1.242187-15.460937-2.574218-23.183594-5.378906-31.207031-18.511719-62.191406-39.101563-92.355468 16.613281 5.089844 32.148438 13.515625 45.554688 24.902344l9.746093-11.472657c-25.925781-22.023437-58.96875-34.148437-93.039062-34.148437-79.285156 0-143.785156 64.5-143.785156 143.785156zm136.257812-128.507812v120.980468h-54.382812c.757812-25.578125 7.144531-50.90625 19.128906-75.695312 11.054688-22.867188 23.941406-38.644532 29.40625-44.816406 1.9375-.203126 3.886719-.355469 5.847656-.46875zm-28.667968 4.964843c-6.09375 8.421875-13.253907 19.617188-19.882813 33.242188-9.875 20.285156-19.769531 48.796875-20.78125 82.773437h-51.648437c3.195312-55.105468 41.203124-101.019531 92.3125-116.015625zm-92.3125 131.070313h51.800781c.535156 10.960937 2.03125 22.398437 4.769531 34.242187l14.667969-3.386719c-2.382813-10.304687-3.859375-20.597656-4.4375-30.855468h54.179687v120.980468c-1.777344-.105468-3.550781-.238281-5.3125-.414062-16.742187-21.824219-29.363281-44.195312-37.527344-66.550781l-14.140624 5.164062c7.039062 19.277344 17.152343 38.5 30.132812 57.359375-52.023438-14.433594-90.898438-60.78125-94.132812-116.539062zm136.035156 0h56.992187c-.488281 15.683594-3.070312 31.320312-7.746093 46.777344-11.496094 38.003906-32.652344 64.535156-40.429688 73.394531-2.910156.371093-5.851562.636719-8.816406.808593zm32.132812 114.945312c10.128906-14.175781 22.933594-35.742187 31.324219-63.160156 5.234375-17.101562 8.089844-34.417969 8.585937-51.785156h48.9375c-3.121093 53.855468-39.496093 98.925781-88.847656 114.945312zm22.277344-151.023437c1.222656 7 2.023438 14.011719 2.40625 21.023437h-56.816406v-120.976562c2.761718.160156 5.511718.414062 8.25.75 24.792968 32.410156 40.320312 65.761718 46.160156 99.203125zm0 0"/><path d="m62.230469 263.527344h33.464843v-15.054688h-33.464843c-3.382813-13.785156-15.84375-24.046875-30.65625-24.046875-17.410157 0-31.574219 14.164063-31.574219 31.574219s14.164062 31.574219 31.574219 31.574219c14.8125 0 27.273437-10.261719 30.65625-24.046875zm-30.65625 8.992187c-9.109375 0-16.519531-7.410156-16.519531-16.519531s7.410156-16.519531 16.519531-16.519531c9.105469 0 16.515625 7.410156 16.515625 16.519531s-7.40625 16.519531-16.515625 16.519531zm0 0"/><path d="m480.425781 224.425781c-14.8125 0-27.269531 10.261719-30.65625 24.046875h-33.464843v15.054688h33.464843c3.386719 13.785156 15.84375 24.046875 30.65625 24.046875 17.410157 0 31.574219-14.164063 31.574219-31.574219s-14.164062-31.574219-31.574219-31.574219zm0 48.09375c-9.105469 0-16.515625-7.410156-16.515625-16.519531s7.410156-16.519531 16.515625-16.519531c9.109375 0 16.519531 7.410156 16.519531 16.519531s-7.410156 16.519531-16.519531 16.519531zm0 0"/><path d="m248.472656 62.230469v33.464843h15.054688v-33.464843c13.785156-3.382813 24.046875-15.84375 24.046875-30.65625 0-17.410157-14.164063-31.574219-31.574219-31.574219s-31.570312 14.164062-31.570312 31.574219c-.003907 14.8125 10.257812 27.273437 24.042968 30.65625zm7.527344-47.175781c9.109375 0 16.519531 7.410156 16.519531 16.519531 0 9.105469-7.410156 16.519531-16.519531 16.519531s-16.519531-7.414062-16.519531-16.519531c0-9.109375 7.410156-16.519531 16.519531-16.519531zm0 0"/><path d="m263.527344 449.769531v-33.464843h-15.054688v33.464843c-13.785156 3.386719-24.042968 15.84375-24.042968 30.65625 0 17.410157 14.160156 31.574219 31.570312 31.574219s31.574219-14.164062 31.574219-31.574219c0-14.8125-10.261719-27.269531-24.046875-30.65625zm-7.527344 47.175781c-9.109375 0-16.519531-7.410156-16.519531-16.519531 0-9.105469 7.410156-16.515625 16.519531-16.515625s16.519531 7.410156 16.519531 16.515625c0 9.109375-7.410156 16.519531-16.519531 16.519531zm0 0"/><path d="m151.800781 296.566406h16.03125v15.050782h-16.03125zm0 0"/><path d="m344.167969 208.398438h16.03125v15.050781h-16.03125zm0 0"/><path d="m113.964844 113.964844c26.429687-26.433594 59.511718-44.917969 95.671875-53.460938l-3.460938-14.648437c-38.878906 9.183593-74.449219 29.054687-102.855469 57.464843-28.410156 28.40625-48.28125 63.976563-57.464843 102.855469l14.648437 3.460938c8.542969-36.15625 27.027344-69.242188 53.460938-95.671875zm0 0"/><path d="m60.503906 302.363281-14.648437 3.460938c9.183593 38.878906 29.054687 74.449219 57.464843 102.855469 28.40625 28.410156 63.976563 48.28125 102.855469 57.464843l3.460938-14.648437c-36.160157-8.542969-69.242188-27.03125-95.671875-53.460938-26.433594-26.429687-44.917969-59.511718-53.460938-95.671875zm0 0"/><path d="m311.359375 449.148438 4.140625 14.472656c74.996094-21.453125 132.722656-81.917969 150.644531-157.796875l-14.652343-3.460938c-16.667969 70.582031-70.367188 126.828125-140.132813 146.785157zm0 0"/><path d="m451.496094 209.636719 14.648437-3.460938c-9.183593-38.878906-29.054687-74.449219-57.464843-102.855469-28.40625-28.410156-63.976563-48.28125-102.855469-57.464843l-3.460938 14.648437c36.160157 8.542969 69.242188 27.03125 95.671875 53.460938 26.433594 26.429687 44.917969 59.515625 53.460938 95.671875zm0 0"/><path d="m280.046875 80.152344h16.03125v15.054687h-16.03125zm0 0"/><path d="m215.925781 416.792969h16.027344v15.054687h-16.027344zm0 0"/><path d="m416.304688 216.414062h16.03125v15.050782h-16.03125zm0 0"/><path d="m79.664062 280.535156h16.03125v15.054688h-16.03125zm0 0"/></g></svg>